<?xml version="1.0" encoding="utf-8"?>
<!-- Uploaded to: SVG Repo, www.svgrepo.com, Generator: SVG Repo Mixer Tools -->
<svg width="800px" height="800px" viewBox="0 0 1024 1024" class="icon"  version="1.1" xmlns="http://www.w3.org/2000/svg"><path d="M213.333333 960a21.333333 21.333333 0 0 1-19.797333-29.269333l341.333333-853.333334a21.333333 21.333333 0 1 1 39.616 15.872l-341.333333 853.333334c-3.349333 8.32-11.370667 13.397333-19.84 13.397333z" fill="#A67C52" /><path d="M85.333333 832a21.376 21.376 0 0 1-7.936-41.152l853.333334-341.333333a21.354667 21.354667 0 0 1 15.872 39.637333l-853.333334 341.333333A21.461333 21.461333 0 0 1 85.333333 832z" fill="#C19F85" /><path d="M682.666667 341.333333m-213.333334 0a213.333333 213.333333 0 1 0 426.666667 0 213.333333 213.333333 0 1 0-426.666667 0Z" fill="#FFFFFF" /><path d="M682.666667 586.666667c-135.274667 0-245.333333-110.058667-245.333334-245.333334S547.392 96 682.666667 96 928 206.058667 928 341.333333 817.941333 586.666667 682.666667 586.666667z m0-426.666667c-99.989333 0-181.333333 81.344-181.333334 181.333333s81.344 181.333333 181.333334 181.333334 181.333333-81.344 181.333333-181.333334-81.344-181.333333-181.333333-181.333333z" fill="#444444" /><path d="M682.666667 341.333333m-85.333334 0a85.333333 85.333333 0 1 0 170.666667 0 85.333333 85.333333 0 1 0-170.666667 0Z" fill="#E86C60" /></svg>